<?xml version="1.0" encoding="utf-8"?>
<!-- Generator: Adobe Illustrator 18.1.1, SVG Export Plug-In . SVG Version: 6.00 Build 0)  -->
<!DOCTYPE svg PUBLIC "-//W3C//DTD SVG 1.1//EN" "http://www.w3.org/Graphics/SVG/1.1/DTD/svg11.dtd">
<svg version="1.1" id="Layer_1" xmlns="http://www.w3.org/2000/svg" xmlns:xlink="http://www.w3.org/1999/xlink" x="0px" y="0px"
	 viewBox="0 0 87 117" enable-background="new 0 0 87 117" xml:space="preserve">
<g>
	<defs>
		<rect id="SVGID_1_" x="0" y="0" width="87" height="117"/>
	</defs>
	<clipPath id="SVGID_2_">
		<use xlink:href="#SVGID_1_"  overflow="visible"/>
	</clipPath>
	<path clip-path="url(#SVGID_2_)" fill="#DA4E3D" d="M21.7,60.1c-6.6-0.2-12.3,3-13.4,9.3l-8.1,44.7L0,114.5c0,0.1,0,0.2,0,0.3
		c0,1.3,1,2.3,2.3,2.3c0,0,0,0,0,0s0,0,0,0l82.3,0c0,0,0.1,0,0.1,0c0,0,0.1,0,0.1,0c1.2-0.1,2.2-1,2.2-2.3c0-0.1,0-0.2,0-0.3l0-0.2
		L80,69.4c-1.1-6.3-7.1-9.5-13.4-9.3h0"/>
	<g clip-path="url(#SVGID_2_)">
		<g>
			<path fill="#B9B9B9" d="M70.9,36.7c0,15.2-12.4,27.6-27.6,27.6c-15.2,0-27.6-12.4-27.6-27.6c0-15.2,12.4-27.6,27.6-27.6
				C58.6,9.1,70.9,21.4,70.9,36.7z"/>
			<path fill="#302F2F" d="M79.8,22l-4.1-2.2C69.7,8.1,57.5,0,43.4,0C29.4,0,17.2,8.1,11.2,19.8L7.1,22c-1.9,0-3.4,2.3-3.4,3.7v16.7
				c0,1.4,1.5,4.9,3.4,4.9h4.5c1.9,0,3.4-1.1,3.4-2.4V25C19.5,13.6,30.5,5.6,43.4,5.6c12.9,0,24,8.1,28.5,19.4v19.9
				c0,1.4,1.5,2.4,3.4,2.4h0.9c0,1.7-0.1,3.2-1.2,4.4c-2.4,2.6-9,3.9-20.6,4.2v-0.1c0-1.3-0.9-2.4-1.9-2.4H41.9
				c-1.1,0-1.9,1.1-1.9,2.4v2.4c0,1.3,0.9,2.4,1.9,2.4h10.5c0.9,0,1.7-0.9,1.8-2C67,58.4,74,56.8,77,53.6c1.8-1.9,2-4.1,2-6.3h0.8
				c1.9,0,3.4-3.5,3.4-4.9V25.7C83.2,24.4,81.7,22,79.8,22z"/>
		</g>
	</g>
	<circle clip-path="url(#SVGID_2_)" fill="#FFCA1E" cx="43.5" cy="78" r="3.4"/>
	<circle clip-path="url(#SVGID_2_)" fill="#FFCA1E" cx="43.5" cy="91.5" r="3.4"/>
	<circle clip-path="url(#SVGID_2_)" fill="#FFCA1E" cx="43.5" cy="105" r="3.4"/>
</g>
</svg>
