<?xml version="1.0" encoding="utf-8"?>
<!-- Generator: Adobe Illustrator 18.0.0, SVG Export Plug-In . SVG Version: 6.00 Build 0)  -->
<!DOCTYPE svg PUBLIC "-//W3C//DTD SVG 1.1//EN" "http://www.w3.org/Graphics/SVG/1.1/DTD/svg11.dtd">
<svg version="1.1" id="Layer_1" xmlns="http://www.w3.org/2000/svg" xmlns:xlink="http://www.w3.org/1999/xlink" x="0px" y="0px"
	 viewBox="0 0 105.335 116.725" enable-background="new 0 0 105.335 116.725" xml:space="preserve">
<g>
	<g>
		<path fill="#302F2F" d="M81.737,116.619H7.042c-3.873,0-7.042-3.168-7.042-7.042V7.042C0,3.168,3.168,0,7.042,0h74.695
			c3.873,0,7.042,3.168,7.042,7.042v102.535C88.779,113.45,85.61,116.619,81.737,116.619"/>
		<path fill="#F2F2F3" d="M75.924,101.586h-63.16c-2.583,0-4.695-2.112-4.695-4.695V12.755c0-2.581,2.112-4.695,4.695-4.695h63.16
			c2.581,0,4.695,2.113,4.695,4.695v84.136C80.618,99.474,78.505,101.586,75.924,101.586"/>
		<path fill="#B8B8B9" d="M47.465,108.101c0,1.699-1.377,3.077-3.077,3.077c-1.698,0-3.075-1.377-3.075-3.077
			c0-1.699,1.377-3.077,3.075-3.077C46.088,105.024,47.465,106.401,47.465,108.101"/>
	</g>
</g>
<path fill="#DA4E3D" d="M78.938,101.748H9.84c-1.105,0-2-0.895-2-2v-90.6c0-1.105,0.895-2,2-2h69.098c1.105,0,2,0.895,2,2v90.6
	C80.938,100.852,80.043,101.748,78.938,101.748z"/>
<g>
	
		<line fill="none" stroke="#FFCA1C" stroke-width="4" stroke-linecap="round" stroke-miterlimit="10" x1="47.675" y1="33.208" x2="50.812" y2="22.508"/>
	
		<line fill="none" stroke="#FFCA1C" stroke-width="4" stroke-linecap="round" stroke-miterlimit="10" x1="39.983" y1="32.957" x2="37.35" y2="22.122"/>
	
		<line fill="none" stroke="#FFCA1C" stroke-width="4" stroke-linecap="round" stroke-miterlimit="10" x1="33.196" y1="36.585" x2="25.498" y2="28.519"/>
	
		<line fill="none" stroke="#FFCA1C" stroke-width="4" stroke-linecap="round" stroke-miterlimit="10" x1="29.133" y1="43.121" x2="18.433" y2="39.984"/>
	
		<line fill="none" stroke="#FFCA1C" stroke-width="4" stroke-linecap="round" stroke-miterlimit="10" x1="28.882" y1="50.813" x2="18.047" y2="53.446"/>
	
		<line fill="none" stroke="#FFCA1C" stroke-width="4" stroke-linecap="round" stroke-miterlimit="10" x1="32.51" y1="57.6" x2="24.444" y2="65.297"/>
	
		<line fill="none" stroke="#FFCA1C" stroke-width="4" stroke-linecap="round" stroke-miterlimit="10" x1="39.409" y1="61.331" x2="36.273" y2="72.03"/>
	
		<line fill="none" stroke="#FFCA1C" stroke-width="4" stroke-linecap="round" stroke-miterlimit="10" x1="57.588" y1="51.75" x2="68.287" y2="54.887"/>
	
		<line fill="none" stroke="#FFCA1C" stroke-width="4" stroke-linecap="round" stroke-miterlimit="10" x1="57.839" y1="44.058" x2="68.673" y2="41.425"/>
	
		<line fill="none" stroke="#FFCA1C" stroke-width="4" stroke-linecap="round" stroke-miterlimit="10" x1="54.21" y1="37.271" x2="62.277" y2="29.574"/>
</g>
<path fill="#FFCA1C" d="M62.844,98.108c3.348,3.908,12.536,7.345,17.661,8.908l7.893,9.709l16.938-14.438l-5.956-8.521
	c-0.082-7.404-1.894-14.515-1.894-14.515s-0.684-2.707-4.589-9.774c-1.782-3.434-3.939-5.454-3.939-5.454S83.493,59,80.331,65.038
	c0,0-5.852-4.759-9.03,1.945c0,0-6.374-3.426-8.422,4.283L50.123,52.929c0,0-2.067-3.463-5.352-1.447
	c-2.753,1.69-0.91,5.029-0.91,5.029l21.809,33.723c0,0-13.843-10.817-17.808-6.632c0,0-2.558,2.238,1.579,5.101
	C52.661,90.933,58.941,93.553,62.844,98.108z"/>
</svg>
