<?xml version="1.0" encoding="utf-8"?>
<!-- Generator: Adobe Illustrator 18.1.1, SVG Export Plug-In . SVG Version: 6.00 Build 0)  -->
<!DOCTYPE svg PUBLIC "-//W3C//DTD SVG 1.1//EN" "http://www.w3.org/Graphics/SVG/1.1/DTD/svg11.dtd">
<svg version="1.1" id="Layer_1" xmlns="http://www.w3.org/2000/svg" xmlns:xlink="http://www.w3.org/1999/xlink" x="0px" y="0px"
	 viewBox="0 0 140 117" enable-background="new 0 0 140 117" xml:space="preserve">
<g>
	<defs>
		<rect id="SVGID_1_" x="0" y="0" width="140" height="117"/>
	</defs>
	<clipPath id="SVGID_2_">
		<use xlink:href="#SVGID_1_"  overflow="visible"/>
	</clipPath>
	<g clip-path="url(#SVGID_2_)">
		<path fill="#B9B9B9" d="M132.9,74.4c-0.5,0-1.1-0.1-1.6-0.3l-19.1-8.3c-4.9,1.5-10,2.3-15.2,2.3c-23.3,0-42.3-15.3-42.3-34
			c0-18.8,19-34,42.3-34c23.4,0,42.3,15.3,42.3,34c0,7.9-3.3,15.4-9.4,21.4l6.6,13.1c0.8,1.5,0.5,3.4-0.7,4.6
			C135.1,74,134,74.4,132.9,74.4L132.9,74.4z"/>
		<path fill="#302F2F" d="M113.2,25H79.4c-1.6,0-2.9-1-2.9-2.2v0c0-1.2,1.3-2.2,2.9-2.2h33.8c1.6,0,2.9,1,2.9,2.2v0
			C116.1,24,114.8,25,113.2,25z"/>
		<path fill="#302F2F" d="M113.9,35.2H78.8c-1.2,0-2.2-1-2.2-2.2v0c0-1.2,1-2.2,2.2-2.2h35.1c1.2,0,2.2,1,2.2,2.2v0
			C116.1,34.2,115.1,35.2,113.9,35.2z"/>
		<path fill="#302F2F" d="M113.9,45.4H78.8c-1.2,0-2.2-1-2.2-2.2v0c0-1.2,1-2.2,2.2-2.2h35.1c1.2,0,2.2,1,2.2,2.2v0
			C116.1,44.5,115.1,45.4,113.9,45.4z"/>
		<path fill="#DA4E3D" d="M7.4,117c-1.3,0-2.5-0.5-3.4-1.5c-1.4-1.4-1.7-3.6-0.8-5.3L10.9,95C3.8,88,0,79.3,0,70.1
			c0-21.8,22-39.5,49.1-39.5c27.1,0,49.1,17.7,49.1,39.5c0,21.8-22,39.5-49.1,39.5c-6.1,0-12-0.9-17.7-2.6l-22.2,9.6
			C8.7,116.9,8,117,7.4,117L7.4,117z"/>
		<g>
			<rect x="37.5" y="49.8" fill="none" width="33.8" height="46"/>
			
				<text transform="matrix(1 0 0 1 37.5454 90.3182)" fill="#FFCA1E" stroke="#FFCA1E" stroke-width="1.5" stroke-linejoin="round" stroke-miterlimit="10" font-family="'OpenSans-Bold'" font-size="53.2825">?</text>
		</g>
	</g>
</g>
</svg>
